<svg width="22" height="21" viewBox="0 0 22 21" fill="none" xmlns="http://www.w3.org/2000/svg">
<path fill-rule="evenodd" clip-rule="evenodd" d="M11 0.894775C5.41698 0.894775 0.894737 5.42322 0.894737 11C0.894737 15.4665 3.7917 19.2505 7.80527 20.5904C8.30774 20.6835 8.49384 20.3733 8.49384 20.1004C8.49384 19.8584 8.48764 19.2257 8.48144 18.382C5.67132 18.99 5.0758 17.0297 5.0758 17.0297C4.61675 15.8635 3.95299 15.5533 3.95299 15.5533C3.03489 14.9268 4.02123 14.9392 4.02123 14.9392C5.03237 15.0136 5.57207 15.9813 5.57207 15.9813C6.47155 17.526 7.93554 17.0793 8.51245 16.8188C8.6055 16.1674 8.86605 15.7208 9.1514 15.4665C6.90579 15.2121 4.54851 14.3436 4.54851 10.4728C4.54851 9.36856 4.93932 8.46907 5.59068 7.76189C5.48522 7.50755 5.13783 6.47779 5.68993 5.08824C5.68993 5.08824 6.53979 4.8153 8.46903 6.1242C9.27547 5.90088 10.1377 5.78922 11 5.78302C11.8561 5.78922 12.7245 5.90088 13.531 6.1242C15.4602 4.8153 16.3101 5.08824 16.3101 5.08824C16.8622 6.47779 16.5148 7.50755 16.4093 7.76189C17.0545 8.46907 17.4453 9.36856 17.4453 10.4728C17.4453 14.3561 15.0818 15.2059 12.83 15.4602C13.1898 15.7704 13.5186 16.3908 13.5186 17.3337C13.5186 18.686 13.5062 19.7716 13.5062 20.1066C13.5062 20.3795 13.6861 20.6897 14.2009 20.5904C18.2145 19.2505 21.1053 15.4665 21.1053 11.0062C21.1053 5.42322 16.583 0.894775 11 0.894775Z" fill="#191717"/>
</svg>
